<svg width="751" height="436" viewBox="0 0 751 436" fill="none" xmlns="http://www.w3.org/2000/svg">
<path d="M0 159.402C0 28.1344 28.1344 0 159.402 0H591.598C722.866 0 751 28.1344 751 159.402V276.598C751 407.866 722.866 436 591.598 436H159.402C28.1344 436 0 407.866 0 276.598V159.402Z" fill="#909E8F"/>
<path d="M104 192.955V192.652C111.573 186.443 112.481 182.959 112.481 141.613C112.481 100.267 111.573 96.4812 104 90.2718V89.9689H143.68V90.2718C137.168 95.5725 135.653 99.0559 135.35 125.408C141.257 125.56 148.072 125.56 156.099 125.56C163.217 125.56 169.578 125.56 175.182 125.408C174.879 99.0559 173.213 95.5725 166.852 90.2718V89.9689H206.532V90.2718C198.959 96.4812 198.202 100.267 198.202 141.613C198.202 182.959 198.959 186.443 206.532 192.652V192.955H166.852V192.652C174.273 186.443 175.182 182.959 175.182 142.522C169.729 142.371 163.369 142.371 156.099 142.371C148.072 142.371 141.257 142.371 135.35 142.522C135.35 182.959 136.107 186.443 143.68 192.652V192.955H104Z" fill="#F6F7F8"/>
<path d="M286.742 195.075C256.603 195.075 232.977 175.084 232.977 141.613C232.977 108.143 256.603 88 286.742 88C316.88 88 340.506 107.991 340.506 141.462C340.506 174.933 316.88 195.075 286.742 195.075ZM288.559 177.962C304.007 177.962 315.82 165.24 315.82 144.037C315.82 119.199 302.947 105.114 284.924 105.114C269.476 105.114 257.512 117.836 257.512 139.039C257.512 163.877 270.536 177.962 288.559 177.962Z" fill="#F6F7F8"/>
<path d="M364.954 89.9689H404.785V90.2718C397.213 96.4812 396.456 100.267 396.456 134.95V159.485C396.456 173.721 401.302 178.113 412.358 178.113C423.262 178.113 430.532 172.509 435.984 168.42C436.136 161.302 436.136 152.366 436.136 141.613C436.136 100.267 435.227 96.4812 427.654 90.2718V89.9689H467.486V90.2718C459.762 96.4812 458.853 100.267 458.853 141.613C458.853 181.899 459.459 185.534 467.486 192.652V192.955H438.256C436.59 192.955 435.833 191.592 435.833 187.957C435.833 185.686 435.833 182.354 435.833 177.962C423.414 189.169 412.055 194.318 400.696 194.318C382.219 194.318 372.981 187.351 372.981 165.543C372.981 162.211 373.587 154.487 373.587 136.01C373.587 100.267 372.678 96.4812 364.954 90.2718V89.9689Z" fill="#F6F7F8"/>
<path d="M496.555 192.652L494.737 167.36H495.04C504.582 174.63 508.974 177.053 515.183 177.053C522.756 177.053 528.057 172.661 528.057 165.24C528.057 160.545 524.573 156.001 518.969 150.549L507.308 139.493C500.19 132.981 496.555 125.711 496.555 117.381C496.555 98.9044 512.003 88.3029 531.843 88.3029C537.446 88.3029 543.05 89.3631 546.533 90.2718L548.957 114.201H548.654C541.687 106.931 536.538 104.205 531.086 104.205C523.967 104.205 519.424 107.689 519.424 113.595C519.424 117.684 522.604 121.471 527.602 126.317L540.324 137.979C548.199 145.097 552.137 153.578 552.137 162.968C552.137 184.322 536.689 194.924 516.092 194.924C509.882 194.924 500.795 193.561 496.555 192.652Z" fill="#F6F7F8"/>
<path d="M580.013 192.955V192.652C587.435 186.443 588.343 182.959 588.343 141.613C588.343 100.267 587.435 96.4812 580.013 90.2718V90.1203C627.872 90.1203 639.079 89.9689 642.714 89.0601H643.017L644.077 109.809H643.774C637.565 106.78 631.81 105.72 622.723 105.72C618.785 105.72 615.15 105.72 611.97 105.871C611.667 111.172 611.364 118.29 611.364 127.377C613.333 127.529 615.604 127.529 618.028 127.529C624.691 127.529 632.718 127.226 641.957 126.166L642.411 143.279C629.235 142.219 619.239 142.219 611.212 142.219C611.212 157.516 611.364 167.966 611.818 175.538C615.15 175.538 618.936 175.538 623.328 175.538C633.021 175.538 638.625 173.418 645.743 169.935H646.046L644.986 193.864H644.683C641.048 192.804 623.783 192.955 598.339 192.955C592.584 192.955 586.374 192.955 580.013 192.955Z" fill="#F6F7F8"/>
<path d="M106.98 230.16V229.79H151.852V230.16C149.618 232.749 147.942 234.968 147.942 239.591C147.942 247.357 152.224 261.596 164.513 297.655C169.353 311.154 172.519 321.324 175.311 329.276C179.408 318.92 185.179 306.161 193.558 287.669C174.753 243.659 171.215 236.077 166.747 229.79H200.633C200.261 231.269 200.261 232.749 200.261 234.783C200.261 240.7 203.053 249.576 210.687 267.698C218.321 248.837 220.555 240.33 220.555 234.413C220.555 232.749 220.555 231.454 220.369 229.79H244.015C240.477 236.077 236.754 243.289 219.624 284.156C228.003 302.648 233.588 315.777 238.057 326.132C240.663 318.55 244.015 309.305 248.111 297.655C260.399 262.336 264.868 247.912 264.868 239.776C264.868 234.968 263.192 232.749 260.586 230.16V229.79H300.616V230.16C294.472 234.783 292.982 236.447 272.129 293.217C251.462 348.877 249.787 353.315 249.414 357.013H223.72C222.603 352.945 219.624 345.548 202.681 306.161C185.552 344.809 182.2 352.76 180.711 357.013H157.624C157.251 353.315 155.576 348.877 135.095 293.217C114.8 236.447 113.683 235.153 106.98 230.16Z" fill="#F6F7F8"/>
<path d="M328.137 355.534V355.164C337.446 347.582 338.563 343.329 338.563 292.847C338.563 242.364 337.446 237.742 328.137 230.16V229.79H376.918V230.16C367.609 237.742 366.678 242.364 366.678 292.847C366.678 343.329 367.609 347.582 376.918 355.164V355.534H328.137Z" fill="#F6F7F8"/>
<path d="M408.672 355.534V355.164C418.54 348.137 419.098 345.548 419.098 292.847V270.102C419.098 257.898 418.912 245.508 418.168 227.016L420.216 226.646C440.51 243.659 473.093 273.8 497.484 296.545C497.297 292.477 497.297 287.669 497.297 282.492C497.297 242.364 496.18 237.742 485.94 230.16V229.79H530.811V230.16C522.06 237.002 521.502 240.145 521.502 292.847C521.502 334.083 522.06 347.213 522.991 357.938L521.688 358.308C504.745 340.186 469.555 306.346 443.117 281.197C443.117 286.375 443.303 292.662 443.303 300.059C443.303 342.959 444.42 347.767 454.66 355.164V355.534H408.672Z" fill="#F6F7F8"/>
<path d="M564.825 355.534V355.164C573.949 347.582 575.066 343.329 575.066 292.847C575.066 242.364 573.949 237.742 564.825 230.16V229.975C623.661 229.975 637.439 229.79 641.907 228.681H642.28L643.583 254.014H643.211C635.577 250.316 628.502 249.021 617.33 249.021C612.49 249.021 608.021 249.021 604.111 249.206C603.739 255.679 603.366 264.37 603.366 275.465C605.787 275.65 608.58 275.65 611.559 275.65C619.751 275.65 629.619 275.28 640.976 273.985L641.535 294.881C625.337 293.587 613.048 293.587 603.18 293.587C603.18 312.263 603.366 325.023 603.925 334.268C608.021 334.268 612.676 334.268 618.075 334.268C629.991 334.268 636.88 331.68 645.631 327.426H646.003L644.7 356.643H644.328C639.859 355.349 618.634 355.534 587.354 355.534C580.279 355.534 572.645 355.534 564.825 355.534Z" fill="#F6F7F8"/>
</svg>
